<svg xmlns="http://www.w3.org/2000/svg">
  <symbol xmlns="http://www.w3.org/2000/svg" viewBox="0 0 16 15.2" id="leaf">
    <path
      d="M2.3 9.3c0 .2.1.4.1.6 0 .8.1 2.1.1 2.1H3s0-2.1-.3-3.2c-.3-1.2-.4-3.4.3-5l-.5-.2s-.6 1.2-.6 3.1c0 1.2.1 1.7.2 2.2C1.7 8.6.6 7.6.7 5.5.9 3.1 3 .9 3 .9s3.7 3.5.4 7.4l.4.3S5.3 6.9 5.3 5c0-1.9-.8-3.5-2.3-4.8C3 .2.4 2.7.2 5.7c-.1 2.8 2 3.8 2 3.8l.1-.2z">
    </path>
    <path
      d="M7.5 6.7C3.8 7.8 4 11.4 4.1 12.2c-1.3 1.3-1.9 2.5-1.9 2.5l.4.2c3.8-6.3 9.7-5.1 9.7-5.1v-.5c-3.6-.4-6.1 1-7.8 2.4-.1-1.3.5-4.4 4.3-4.7 4.4-.1 6.5 2.5 6.5 2.5-2.3 3.7-4.9 4.2-6.5 4.4C7.1 14.2 5 13 5 13l-.2.4s1.8 1.2 4.1 1c5-.6 6.9-5 6.9-5-.5-1-4.2-3.7-8.3-2.7z">
    </path>
  </symbol>
  <symbol xmlns="http://www.w3.org/2000/svg" viewBox="0 0 18.2 14.8" id="truck">
    <path d="M2.9 5.7l1-.8H4c.3 0 .5-.2.5-.5 0-.2-.1-.3-.2-.4V1.9h-.5V4c-.2.1-.3.2-.3.4v.1l-1 .8.4.4z"></path>
    <path
      d="M18.1 11.1V7.9c0-1-.4-1.4-.4-1.4s-1-1.3-1.6-2.1-1.4-.8-1.4-.8h-3.4v-.5c0-.7-.5-1.2-1.2-1.2H7.2C6.5.9 5.3.2 4 .2 1.8.2.1 2 .1 4.2c0 .9.3 1.7.8 2.4V11c0 .7.5 1.2 1.2 1.2h.5v.1c0 1.2 1 2.2 2.2 2.2 1.2 0 2.2-1 2.2-2.2v-.1h5v.1c0 1.2 1 2.2 2.2 2.2 1.2 0 2.2-1 2.2-2.2v-.1h.2c1.7.1 1.5-1.1 1.5-1.1zm-.5-3.5v.3h-3.9c-.2 0-.4-.2-.4-.4V5.9c0-.2.2-.4.4-.4h2.6c.3.3.6.7.8 1 .5.6.5 1.1.5 1.1zM4 .8c1.9 0 3.5 1.5 3.5 3.5S5.9 7.7 4 7.7.6 6.1.6 4.2 2.1.8 4 .8zM4.7 14c-.9 0-1.6-.7-1.6-1.6s.7-1.6 1.6-1.6 1.6.7 1.6 1.6S5.6 14 4.7 14zm2-2.3c-.3-.8-1.1-1.5-2-1.5-.9 0-1.7.6-2 1.5H2c-.3 0-.6-.3-.6-.6v-4c.7.6 1.6 1 2.6 1 2.2 0 3.9-1.8 3.9-3.9 0-.6-.2-1.2-.4-1.7h2.6c.3 0 .6.3.6.6v8c0 .3-.3.6-.6.6H6.7zm7.4 2.3c-.9 0-1.6-.7-1.6-1.6s.7-1.6 1.6-1.6 1.6.7 1.6 1.6S15 14 14.1 14zm2.5-2.2h-.4c-.3-.9-1.1-1.5-2-1.5-1 0-1.8.6-2 1.5h-1c.2-.2.3-.4.3-.7V4h3.1c.9 0 1.3.6 1.3.6s-.1.2.1.4h-2.3c-.5 0-.8.4-.8.8v1.6c0 .5.4.8.8.8h4v2.6c-.1 1.1-1.1 1-1.1 1z">
    </path>
  </symbol>
  <symbol xmlns="http://www.w3.org/2000/svg" viewBox="0 0 15.2 15.2" id="measure">
    <path d="M4.3 3c0 .2.4.4 1 .4s1-.2 1-.4-.4-.4-1-.4c-.5 0-1 .1-1 .4z"></path>
    <path
      d="M15.1 6.7c0-1-.8-1.8-1.8-1.8H4.1S1.7 5 .6 3.1C.7 1.7 1.8.7 3.2.7h4c1.5 0 2.6 1.2 2.6 2.6v.5h.5v-.4C10.3 1.6 8.9.2 7.1.2H3.3C1.5.2.1 1.6.1 3.4v4.7c0 1.8 1.4 3.2 3.2 3.2H4v-.5h-.8C1.7 10.8.6 9.6.6 8.2V4c.3.4 1.3 1.4 3.4 1.4h9.3c.7 0 1.2.5 1.2 1.2v.8c0 .7-.5 1.2-1.2 1.2H6.9c-1 0-1.8.8-1.8 1.8v2.7c0 1 .8 1.8 1.8 1.8h6.4c1 0 1.8-.8 1.8-1.8V6.7zm-.6 6.6c0 .7-.5 1.2-1.2 1.2H6.8c-.7 0-1.2-.5-1.2-1.2v-2.9c0-.7.5-1.2 1.2-1.2h1.9v1.7h.5V9.2h3.2v1.7h.5V9.2h.4c.5 0 1-.2 1.3-.5v4.6z">
    </path>
  </symbol>
  <symbol xmlns="http://www.w3.org/2000/svg" viewBox="0 0 401.998 401.998" id="phone">
    <path
      d="M401.129 311.475c-1.137-3.426-8.371-8.473-21.697-15.129-3.61-2.098-8.754-4.949-15.41-8.566a1437.412 1437.412 0 0 1-18.13-9.996 605.612 605.612 0 0 1-15.276-8.846c-.76-.571-3.139-2.234-7.136-5-4.001-2.758-7.375-4.805-10.14-6.14-2.759-1.327-5.473-1.995-8.138-1.995-3.806 0-8.56 2.714-14.268 8.135a139.01 139.01 0 0 0-15.7 17.706c-4.757 6.379-9.802 12.275-15.126 17.7-5.332 5.427-9.713 8.138-13.135 8.138-1.718 0-3.86-.479-6.427-1.424-2.566-.951-4.518-1.766-5.858-2.423-1.328-.671-3.607-1.999-6.845-4.004-3.244-1.999-5.048-3.094-5.428-3.285-26.075-14.469-48.438-31.029-67.093-49.676-18.649-18.658-35.211-41.019-49.676-67.097-.19-.381-1.287-2.19-3.284-5.424-2-3.237-3.333-5.518-3.999-6.854-.666-1.331-1.475-3.283-2.425-5.852s-1.427-4.709-1.427-6.424c0-3.424 2.713-7.804 8.138-13.134 5.424-5.327 11.326-10.373 17.7-15.128a138.95 138.95 0 0 0 17.701-15.699c5.424-5.711 8.136-10.467 8.136-14.273 0-2.663-.666-5.378-1.997-8.137-1.332-2.765-3.378-6.139-6.139-10.138-2.762-3.997-4.427-6.374-4.999-7.139a627.13 627.13 0 0 1-8.848-15.271 1441.4 1441.4 0 0 1-9.995-18.131c-3.615-6.658-6.468-11.799-8.564-15.415C98.986 9.233 93.943 1.997 90.516.859 89.183.288 87.183 0 84.521 0c-5.142 0-11.85.95-20.129 2.856-8.282 1.903-14.799 3.899-19.558 5.996-9.517 3.995-19.604 15.605-30.264 34.826C4.863 61.566.01 79.271.01 96.78c0 5.135.333 10.131.999 14.989.666 4.853 1.856 10.326 3.571 16.418 1.712 6.09 3.093 10.614 4.137 13.56 1.045 2.948 2.996 8.229 5.852 15.845 2.852 7.614 4.567 12.275 5.138 13.988 6.661 18.654 14.56 35.307 23.695 49.964 15.03 24.362 35.541 49.539 61.521 75.521 25.981 25.98 51.153 46.49 75.517 61.526 14.655 9.134 31.314 17.032 49.965 23.698 1.714.568 6.375 2.279 13.986 5.141 7.614 2.854 12.897 4.805 15.845 5.852 2.949 1.048 7.474 2.43 13.559 4.145 6.098 1.715 11.566 2.905 16.419 3.576 4.856.657 9.853.996 14.989.996 17.508 0 35.214-4.856 53.105-14.562 19.219-10.656 30.826-20.745 34.823-30.269 2.102-4.754 4.093-11.273 5.996-19.555 1.909-8.278 2.857-14.985 2.857-20.126.006-2.673-.281-4.668-.855-6.012z">
    </path>
  </symbol>
  <symbol xmlns="http://www.w3.org/2000/svg" viewBox="0 0 22.3 18.9" id="biceps">
    <path d="M17.4 3.1c-2.1 0-4.8 1.5-4.7 4.6 0 0-4.1-1.3-5.3 3 0 0-.7-1.5-1.6-2.2-1-.7-2.2-2.5-2.3-3.4.1-.5.2-.5.4-.6.1 0 .1.8 1 .9.8-.1 1-.3 1.3-.7l.9-1s.9-1.2.1-1.8c-.7-.7-2-2-3.6-1.7-.9.2-1.6.9-1.6.9L.8 2.2S0 3 0 4.6C0 6 .3 8.3.3 8.3l.4 2.4c.1.6.9 4.1 2.8 6 1.2 1.4 1.9 2 2.5 2.1 1 0 1.5-.6 2.3-.6.8 0 1.6.6 3.3.6s5.5-1 7.1-5.9c1.5-.6 3.6-1.7 3.6-5s-2.9-4.8-4.9-4.8zm.7 9.2c-1.1 4.4-4.6 5.6-6.3 5.8-1.6 0-2.5-.6-3.7-.6-.7 0-1.7.6-2 .6S5 17.4 4 16.3s-1.4-2.1-1.8-2.9c-.4-.8-1.1-4-1.1-4S.8 6.2.8 4.8c0-1.3.6-2.1.6-2.1L3 1.3c.9-.7 2-.2 2-.2s1.1.7 1.5 1.1c.5.4 0 .8 0 .8S5.4 4.4 5 4.5c-.5.1-.6-1.1-.6-1.1-.5.2-1.3.4-1.6 1.3-.3 1.1 1.3 3.4 2.5 4.5 1.1 1.1 1.8 2.9 1.8 2.9l.9-.3s-.1-2.1 1.7-3.2c2-1.1 3.8.4 3.8.4-.6-5 3.8-5.1 4.1-5.1s3.8.3 4.1 3.8c-.2 4-3.6 4.6-3.6 4.6z"></path>
  </symbol>
  <symbol xmlns="http://www.w3.org/2000/svg" viewBox="0 0 20.6 20.8" id="hearts">
    <path d="M10.3.2C4.7.2.1 4.8.1 10.4s4.6 10.2 10.2 10.2S20.5 16 20.5 10.4 15.9.2 10.3.2zm0 19.6c-5.2 0-9.4-4.2-9.4-9.4S5.1 1 10.3 1s9.4 4.2 9.4 9.4-4.2 9.4-9.4 9.4z"></path>
    <path d="M10.3 15.7c-3.5 0-5.6-3.1-5.6-3.1l-.7.5c2.8 3.6 6.3 3.5 6.3 3.5s3.5.2 6.3-3.5l-.7-.5s-2.1 3.1-5.6 3.1zm-3.4-4.2C9.3 10.4 9.7 9 9.7 8.3c0-.8-.5-1.7-1.4-1.7-1 0-1.4.5-1.4.5s-.4-.5-1.4-.5c-.9 0-1.4 1-1.4 1.7s.4 2.1 2.8 3.2zm0-3.4c.5-.8 1.9-.9 2 .1 0 1.4-2 2.4-2 2.4s-2-1-2-2.4c.1-1 1.5-.9 2-.1zm6.8 3.4c2.4-1.1 2.8-2.5 2.8-3.1 0-.8-.5-1.7-1.4-1.7-1 0-1.4.5-1.4.5s-.4-.5-1.4-.5c-.9 0-1.4 1-1.4 1.7 0 .6.4 2 2.8 3.1zm0-3.4c.5-.8 1.9-.9 2 .1 0 1.4-2 2.4-2 2.4s-2-1-2-2.4c.1-1 1.5-.9 2-.1z"></path>
  </symbol>
  <symbol xmlns="http://www.w3.org/2000/svg" viewBox="0 0 18.8 20" id="person">
    <path d="M17.4 5.8c.2-.2.4-.4.5-.6.7-.9.6-1.3-.1-1.9s-1.8.3-1.8.3l-.2.2c-1.1-1-2.5-1.8-4.1-2.2C11.1.7 10.2.1 9.2.1c-1.1 0-2 .7-2.6 1.6a9.4 9.4 0 0 0-3.5 2c-.2-.1-.6-.5-1.1-.6C1.3 3 .6 3.5.5 4.2c0 .4.4 1 .9 1.6C.5 7.2 0 8.8 0 10.6c0 5.1 4.2 9.3 9.4 9.3 1.8 0 3.6-.5 5-1.4l-.3-.7c-1.3-3.3-1-5.4-.9-6.4.3-1.1 1.4-2.6 2-3.4.4-.5 1-1 1.6-1.6.8 1.2 1.2 2.6 1.2 4.2 0 2.3-1 4.4-2.5 6l.6.5c1.7-1.7 2.7-4 2.7-6.5 0-1.8-.5-3.4-1.4-4.8zM9.2.9c1.3 0 2.3 1.2 2.3 2.7s-1 2.7-2.3 2.7-2.3-1.1-2.3-2.7S7.9.9 9.2.9zm0 6.2c1.7 0 3.1-1.6 3.1-3.5 0-.4-.1-.7-.2-1.1 1.2.4 2.2 1 3.1 1.8-.8.7-2 1.6-2.6 2-.9.7-2.4 1.4-3.6 1.4-1.2 0-1.8-.5-2.7-.9-.8-.4-2.1-1.9-2.7-2.5.8-.7 1.7-1.2 2.6-1.6 0 .3-.1.6-.1.9 0 2 1.4 3.5 3.1 3.5zM.8 10.6c0-1.5.4-2.9 1.1-4.2l.3.3s2.5 2.9 3 3.6c.5.7-.1 1.2-.5 3-.3 1.4-.3 3.3-.3 4.2C2.2 15.9.8 13.4.8 10.6zm15.5-4.8c-.4.4-1.8 1.6-3 3.5s-1 3.4-.9 4.5c.1 1.1.4 2.1.5 2.5.1.3.5 1.4.6 1.7-1.2.6-2.6 1-4 1-1.6 0-3-.4-4.3-1.1 0-3.4.2-3.9.3-4.4 0-.5.3-1.5.6-2.3.2-.7-.1-1.3-.4-1.6-.3-.3-3.2-3.8-3.7-4.5-.6-.7-.7-1-.2-1.2.5-.3 1.8 1.3 2.4 2 .5.7 2.8 2.6 4.9 2.5s3.6-1.2 4.2-1.6c.5-.4 3.1-2.5 3.5-2.8.4-.3.9 0 .8.3-.1.3-.9 1.1-1.3 1.5z"></path>
  </symbol>
  <symbol fill="#fff" xmlns="http://www.w3.org/2000/svg" viewBox="0 0 442.326 442.326" id="chocolate-bar">
    <path d="M430.024 68.87l-56.568-56.568C365.523 4.369 354.976 0 343.757 0c-11.218 0-21.766 4.369-29.699 12.302a41.962 41.962 0 0 0-12.3 30.598 41.91 41.91 0 0 0-30.597 12.301 41.949 41.949 0 0 0-12.3 30.598c-11.206-.274-22.305 4.008-30.598 12.3a41.962 41.962 0 0 0-12.3 30.597c-11.214-.228-22.305 4.008-30.597 12.301h-.001L45.358 281.003l-.023.023-42.279 42.278a9.955 9.955 0 0 0-2.729 4.671 9.952 9.952 0 0 0 .556 6.629l.002.003c.214.475.463.93.746 1.362a9.968 9.968 0 0 0 5.583 4.135l.019.005c.01.005.016.006.023.007l34.258 9.789 9.789 34.258a10 10 0 0 0 6.868 6.868l34.254 9.785 9.787 34.255a.328.328 0 0 0 .006.022l.003.01.003.013.004.013.001.005a9.963 9.963 0 0 0 5.436 6.284l.012.005a9.978 9.978 0 0 0 4.144.904c.909 0 1.834-.125 2.752-.388a9.95 9.95 0 0 0 4.451-2.671l42.276-42.276a.25.25 0 0 0 .023-.023l60.658-60.658a10 10 0 0 0 14.142 0l72.278-72.278c3.905-3.905 3.905-10.237 0-14.143l-.85-.85a41.99 41.99 0 0 0 6.08-22.677 42 42 0 0 0 30.597-12.3 41.949 41.949 0 0 0 12.3-30.598c11.2.261 22.305-4.008 30.598-12.3a41.95 41.95 0 0 0 12.3-30.598c11.205.209 22.305-4.009 30.597-12.301 7.933-7.933 12.302-18.479 12.302-29.698.001-11.217-4.368-21.764-12.301-29.698zM116.773 413.234l-6.644-23.255a10 10 0 0 0-6.868-6.868l-34.254-9.785-9.789-34.258a10 10 0 0 0-6.868-6.868l-23.259-6.646 23.338-23.338 87.681 87.682-23.337 23.336zm118.18-104.038L211.46 200.459c-1.167-5.398-6.488-8.825-11.886-7.662-5.398 1.166-8.829 6.488-7.663 11.886l23.703 109.71-61.362 61.362-87.681-87.681 125.865-125.865 94.752 94.752-52.235 52.235zm180.93-195.071a21.985 21.985 0 0 1-25.349 4.145 10 10 0 0 0-13.406 13.406 21.98 21.98 0 0 1-4.144 25.348 21.978 21.978 0 0 1-25.348 4.144 9.999 9.999 0 0 0-13.406 13.406 21.98 21.98 0 0 1-4.144 25.348 21.98 21.98 0 0 1-25.348 4.144 10 10 0 0 0-13.406 13.406 21.972 21.972 0 0 1 1.231 16.581l-84.289-84.289a21.97 21.97 0 0 1 16.58 1.231 9.999 9.999 0 0 0 13.406-13.406 21.978 21.978 0 0 1 4.144-25.348 21.974 21.974 0 0 1 25.348-4.143 9.999 9.999 0 0 0 13.406-13.406 21.981 21.981 0 0 1 4.144-25.349 21.981 21.981 0 0 1 25.348-4.144 10 10 0 0 0 13.406-13.406 21.976 21.976 0 0 1 4.144-25.348 21.857 21.857 0 0 1 15.556-6.444 21.857 21.857 0 0 1 15.556 6.444l56.569 56.568a21.857 21.857 0 0 1 6.444 15.557 21.854 21.854 0 0 1-6.442 15.555z"></path>
  </symbol>
  <symbol viewBox="0 0 18 18" id="cross" xmlns="http://www.w3.org/2000/svg">
    <path class="st0" d="M12.2,9l5.2-5.2c0.8-0.8,0.8-2,0-2.7l-0.4-0.4c-0.8-0.8-2-0.8-2.7,0L9,5.8L3.8,0.6C3-0.2,1.8-0.2,1,0.6L0.6,1
    c-0.8,0.8-0.8,2,0,2.7L5.8,9l-5.2,5.2c-0.8,0.8-0.8,2,0,2.7L1,17.4c0.8,0.8,2,0.8,2.7,0L9,12.2l5.2,5.2c0.8,0.8,2,0.8,2.7,0l0.4-0.4
    c0.8-0.8,0.8-2,0-2.7L12.2,9z"/>
  </symbol>
</svg>